<svg xmlns="http://www.w3.org/2000/svg" viewBox="0 0 512 512">
  <rect width="512" height="512" fill="#06080f"/>
  <!-- stem -->
  <rect x="248" y="270" width="16" height="120" rx="8" fill="#22c55e"/>
  <!-- main leaf -->
  <path d="M256 270 C256 270 185 232 175 158 C175 158 248 148 276 212 C276 212 304 148 358 158 C358 232 256 270 256 270Z" fill="#22c55e" opacity="0.9"/>
  <!-- left small leaf -->
  <path d="M248 320 C248 320 205 304 196 267 C196 267 237 260 248 292Z" fill="#22c55e" opacity="0.7"/>
  <!-- right small leaf -->
  <path d="M264 340 C264 340 306 322 318 283 C318 283 276 280 264 312Z" fill="#22c55e" opacity="0.7"/>
  <!-- blue glow dot -->
  <circle cx="256" cy="200" r="14" fill="#3b82f6" opacity="0.8"/>
  <!-- soil base -->
  <rect x="206" y="385" width="100" height="18" rx="9" fill="#3b82f6" opacity="0.4"/>
</svg>
